<svg width="169" height="90" viewBox="0 0 169 90" fill="none" xmlns="http://www.w3.org/2000/svg">
<path d="M10.9869 68.5171C4.47084 61.2848 0.5 51.7088 0.5 41.208C0.5 18.6695 18.7756 0.400879 41.3141 0.400879C63.8526 0.400879 82.1282 18.6695 82.1282 41.208C82.1282 43.5933 81.9196 45.9369 81.5301 48.2109" stroke="#1D1D1B" stroke-width="0.695418" stroke-linecap="round" stroke-linejoin="round"/>
<path d="M80.1047 53.9203H80.0981" stroke="#1D1D1B" stroke-width="0.695418" stroke-linecap="round" stroke-linejoin="round"/>
<path d="M66.579 43.2317C62.4135 42.2372 56.1269 52.8215 53.373 49.2471C50.6122 45.6726 53.373 38.6697 53.373 38.6697C61.5094 35.5404 68.7 36.7087 73.7905 39.2609C75.0423 42.8353 70.7446 44.2192 66.579 43.2317Z" fill="#71A894" stroke="#1D1D1B" stroke-width="0.695418" stroke-miterlimit="10"/>
<path d="M77.6358 74.463C72.7956 73.3295 73.9848 65.6659 73.9848 65.6659C69.7706 71.2849 64.1377 75.7912 57.6216 78.6285C57.6564 75.7356 55.4032 74.7759 53.0249 76.1668C50.6396 77.5506 50.2432 76.1668 46.5436 76.1668C42.844 76.1668 43.0665 81.9805 43.0665 81.9805C42.378 88.8651 37.4475 90.9931 34.2277 88.6426C31.8981 86.9388 32.3432 83.4339 32.816 81.4867C26.5851 81.3546 14.151 79.6369 11.5015 73.2112C10.6391 71.118 10.6183 69.602 10.9938 68.5102C11.8144 66.0902 14.5335 65.7146 14.2623 65.7146C14.0119 60.9927 17.2178 56.9454 19.624 54.6088C19.624 54.6088 17.2526 48.3431 18.6504 47.7033C20.0551 47.0565 21.8841 47.0705 26.6199 51.1526C26.8285 51.1387 32.211 50.3042 34.798 50.9926C34.9093 50.93 36.9468 46.4029 38.4628 46.4029C38.9705 46.4029 39.5129 46.8201 40.0414 47.4599C44.6312 43.0857 49.1375 40.2832 53.3865 38.6559C53.3865 38.6559 50.6257 45.6588 53.3865 49.2332C56.1404 52.8077 62.427 42.2234 66.5925 43.2178C70.7581 44.2053 75.0558 42.8215 73.804 39.247C74.9654 39.8242 76.0154 40.4779 76.9403 41.1664C77.0516 34.8381 75.2922 26.4096 67.3714 19.0521C66.8081 18.4888 66.7594 17.5847 67.274 16.9658C67.8234 16.2982 68.804 16.2147 69.4576 16.7641C79.0892 25.7142 80.8903 36.8965 80.5496 43.7742C80.5496 43.7742 81.8639 46.5002 81.5301 48.2109C81.1893 50.1651 80.7165 52.0705 80.1115 53.9203C84.0267 56.9524 82.4898 75.5896 77.6427 74.463H77.6358Z" stroke="#1D1D1B" stroke-width="0.695418" stroke-linecap="round" stroke-linejoin="round"/>
<path d="M22.1699 52.446C22.1699 52.446 21.0363 53.2388 19.6177 54.6158" stroke="#1D1D1B" stroke-width="0.695418" stroke-linecap="round" stroke-linejoin="round"/>
<path d="M69.5766 16.8969L69.4507 16.771" stroke="#1D1D1B" stroke-width="0.695418" stroke-linecap="round" stroke-linejoin="round"/>
<path d="M40.0347 47.4807C41.0708 48.7394 42.0444 50.8813 42.5451 52.453" stroke="#1D1D1B" stroke-width="0.695418" stroke-linecap="round" stroke-linejoin="round"/>
<path d="M35.0906 65.8954C35.0906 65.8954 32.9904 62.7034 29.1587 65.2069" stroke="#1D1D1B" stroke-width="1.39084" stroke-miterlimit="10" stroke-linecap="round"/>
<path d="M21.7453 64.7688C21.7453 64.7688 20.2432 61.8828 16.7104 63.6422" stroke="#1D1D1B" stroke-width="1.39084" stroke-miterlimit="10" stroke-linecap="round"/>
<path d="M19.484 60.4435C20.2281 60.2864 20.7656 59.8484 20.6847 59.4651C20.6038 59.0818 19.935 58.8984 19.191 59.0554C18.4469 59.2125 17.9093 59.6506 17.9903 60.0339C18.0712 60.4172 18.7399 60.6006 19.484 60.4435Z" fill="#1D1D1B"/>
<path d="M34.7523 61.065C34.8475 60.614 34.2149 60.0986 33.3393 59.9138C32.4637 59.729 31.6767 59.9447 31.5815 60.3957C31.4863 60.8466 32.119 61.362 32.9946 61.5468C33.8701 61.7317 34.6571 61.5159 34.7523 61.065Z" fill="#1D1D1B"/>
<path d="M57.622 78.6285C53.1296 80.5896 48.213 81.7648 43.0599 81.9804C43.0599 81.9804 42.8304 76.1667 46.537 76.1667C50.2436 76.1667 50.633 77.5506 53.0183 76.1667C55.3966 74.7759 57.6498 75.7286 57.615 78.6285H57.622Z" fill="#71A894" stroke="#1D1D1B" stroke-width="0.695418" stroke-miterlimit="10"/>
<path d="M28.1918 81.1737C27.9554 81.6049 27.8232 82.1056 27.8232 82.6341C27.8232 84.3448 29.2071 85.7287 30.9179 85.7287C31.4881 85.7287 32.0236 85.5757 32.4825 85.2975" stroke="#1D1D1B" stroke-width="0.695418" stroke-miterlimit="10"/>
<path d="M30.654 84.1926C31.0267 84.1926 31.3289 83.8904 31.3289 83.5176C31.3289 83.1448 31.0267 82.8427 30.654 82.8427C30.2812 82.8427 29.979 83.1448 29.979 83.5176C29.979 83.8904 30.2812 84.1926 30.654 84.1926Z" fill="#1D1D1B"/>
<path d="M30.654 83.5173C30.654 83.5173 30.9462 85.0203 29.979 85.584" stroke="#1D1D1B" stroke-width="0.695418" stroke-miterlimit="10"/>
<path d="M113.395 41.5348C115.634 41.5348 116.969 40.2065 117.394 37.5083H122.213C121.545 42.5362 118.221 45.603 113.388 45.603C107.985 45.603 104.118 41.7504 104.118 35.7976C104.118 29.8448 107.985 25.9922 113.388 25.9922C118.214 25.9922 121.538 29.059 122.213 34.0869H117.394C116.969 31.3886 115.627 30.0604 113.395 30.0604C110.572 30.0604 109.014 32.0284 109.014 35.7976C109.014 39.5668 110.572 41.5348 113.395 41.5348Z" fill="#71A894"/>
<path d="M121.545 45.2067L127.769 26.3887H134.438L140.572 45.2067H135.391L134.341 41.361H127.693L126.622 45.2067H121.552H121.545ZM133.298 37.5154L131.045 29.2816L128.757 37.5154H133.298Z" fill="#71A894"/>
<path d="M154.431 30.415H146.142V34.1981H153.68V38.0646H146.142V45.1996H141.288V26.3816H154.431V30.4081V30.415Z" fill="#71A894"/>
<path d="M168.785 26.3886V30.4151H160.496V33.9339H168.034V37.6822H160.496V41.1732H169.008V45.1997H155.642V26.3817H168.785V26.3886ZM163.681 25.4081H160.816L162.763 21.2008H166.657L163.681 25.4081Z" fill="#71A894"/>
<path d="M124.333 56.8967C124.883 57.4252 125.175 58.1067 125.21 58.9551V65.8954H124.041V59.275C124.006 58.6422 123.805 58.1276 123.429 57.7312C123.054 57.3348 122.518 57.1262 121.823 57.1122C121.176 57.1122 120.578 57.2652 120.036 57.5712C119.493 57.8772 119.055 58.3153 118.721 58.8716C118.387 59.4349 118.221 60.0678 118.221 60.784V65.8954H117.08V56.3751H118.075L118.172 58.4892C118.478 57.759 119.006 57.1818 119.744 56.7506C120.481 56.3195 121.294 56.1039 122.191 56.1039C123.088 56.1039 123.784 56.3681 124.333 56.8967Z" fill="#1D1D1B"/>
<path d="M138.84 64.0455L139.424 64.8731C138.951 65.2486 138.422 65.5407 137.831 65.7632C137.24 65.9788 136.642 66.0901 136.044 66.0901C135.071 66.0901 134.201 65.8745 133.429 65.4364C132.657 64.9983 132.059 64.4002 131.628 63.6491C131.197 62.8981 130.981 62.0497 130.981 61.1039C130.981 60.1582 131.211 59.3584 131.663 58.5865C132.115 57.8146 132.734 57.2026 133.513 56.7506C134.292 56.2986 135.147 56.0691 136.072 56.0691C137.178 56.0691 138.116 56.3959 138.895 57.0427C139.674 57.6894 140.244 58.5656 140.599 59.6714L132.47 62.8146C132.776 63.4962 133.255 64.0455 133.895 64.4697C134.535 64.8939 135.265 65.1026 136.072 65.1026C137.094 65.1026 138.019 64.7549 138.847 64.0525L138.84 64.0455ZM134.02 57.5712C133.422 57.9259 132.949 58.4127 132.609 59.0177C132.268 59.6296 132.101 60.3042 132.101 61.0483C132.101 61.389 132.136 61.6881 132.198 61.9454L139.208 59.1915C138.902 58.5448 138.471 58.0163 137.915 57.6199C137.365 57.2235 136.726 57.0218 135.995 57.0218C135.265 57.0218 134.625 57.2026 134.027 57.5573L134.02 57.5712Z" fill="#1D1D1B"/>
<path d="M148.868 60.6867L147.262 62.0984V65.8953H146.121V47.3972H147.262V60.8536L152.595 56.1803L153.305 56.7923L149.654 60.0051L153.889 65.8953H152.554L148.875 60.6867H148.868Z" fill="#1D1D1B"/>
<path d="M158.687 58.5517C159.132 57.7798 159.744 57.1748 160.523 56.7297C161.302 56.2847 162.164 56.0621 163.103 56.0621C164.041 56.0621 164.904 56.2847 165.683 56.7297C166.462 57.1748 167.074 57.7868 167.505 58.5517C167.943 59.3236 168.158 60.1651 168.158 61.0691C168.158 61.9732 167.936 62.8355 167.491 63.6005C167.046 64.3654 166.434 64.9704 165.669 65.4155C164.897 65.8606 164.035 66.0831 163.075 66.0831C162.115 66.0831 161.253 65.8675 160.481 65.4364C159.709 65.0052 159.104 64.4072 158.666 63.6491C158.228 62.8842 158.012 62.0288 158.012 61.0691C158.012 60.1581 158.235 59.3236 158.68 58.5517H158.687ZM159.688 63.1206C160.036 63.7396 160.509 64.2263 161.114 64.581C161.712 64.9357 162.372 65.1165 163.082 65.1165C163.791 65.1165 164.452 64.9357 165.05 64.581C165.648 64.2263 166.128 63.7396 166.475 63.1206C166.823 62.5017 166.997 61.8341 166.997 61.1039C166.997 60.3737 166.823 59.6992 166.475 59.0733C166.128 58.4474 165.655 57.9606 165.05 57.599C164.452 57.2443 163.791 57.0635 163.082 57.0635C162.372 57.0635 161.684 57.2513 161.086 57.6338C160.488 58.0163 160.015 58.517 159.674 59.1289C159.334 59.7478 159.167 60.4015 159.167 61.097C159.167 61.7924 159.34 62.5017 159.688 63.1137V63.1206Z" fill="#1D1D1B"/>
</svg>
