<svg width="104" height="89" viewBox="0 0 104 89" fill="none" xmlns="http://www.w3.org/2000/svg">
<path d="M95.5435 58.6179C97.4392 59.6335 99.2927 60.61 101.131 61.6167C102.234 62.2225 102.72 63.1869 102.566 64.4407C102.427 65.5588 101.806 66.4178 100.733 66.6227C99.9859 66.7644 99.0757 66.6468 98.3795 66.3334C96.7098 65.586 95.1245 64.6577 93.7924 63.9554C91.6073 66.7975 89.7357 69.6939 87.415 72.1652C80.9081 79.0881 72.6832 82.973 63.4818 84.7964C52.1436 87.0448 41.0284 86.1949 30.3412 81.6138C21.9053 77.9971 15.1573 72.3943 10.7691 64.1724C10.7178 64.076 10.6395 63.9916 10.5008 63.8017C8.82208 64.6938 7.14335 65.598 5.44955 66.4751C4.42483 67.0055 3.40614 66.9422 2.47485 66.249C1.57672 65.5769 1.13066 64.5823 1.49836 63.5666C1.77865 62.7921 2.39348 61.9814 3.08667 61.5474C4.79253 60.4714 6.62798 59.6034 8.45741 58.6269C8.14396 57.3701 7.83956 56.1374 7.51406 54.8234C6.38988 55.4231 5.34407 56.0018 4.28017 56.5503C2.71898 57.3581 1.13066 56.9632 0.365137 55.601C-0.4245 54.1905 0.0908737 52.578 1.67617 51.695C3.18613 50.8541 4.75033 50.1127 6.2422 49.2447C6.6099 49.0307 7.00773 48.4973 7.01677 48.1024C7.24281 39.4375 10.3561 31.9119 15.8083 25.2663C16.1428 24.8594 16.3236 24.1843 16.2995 23.6478C16.1096 18.9823 15.8414 14.3199 15.6365 9.65437C15.5943 8.68089 15.5973 7.68028 15.7751 6.7279C16.827 1.11907 22.2429 -1.07504 27.2098 2.07447C31.3056 4.67243 35.3894 7.28245 39.4582 9.92261C40.1694 10.3837 40.7963 10.5133 41.6523 10.3325C48.6234 8.86775 55.6065 8.94009 62.5897 10.3174C63.0719 10.4139 63.7109 10.2903 64.1268 10.0281C68.3311 7.39397 72.4993 4.70257 76.6856 2.04131C78.283 1.02564 80.025 0.456013 81.9268 0.663971C85.23 1.02564 87.8309 3.54825 88.054 7.02024C88.2589 10.2391 88.06 13.488 87.9937 16.7219C87.9425 19.1692 87.7948 21.6134 87.7556 24.0637C87.7496 24.4977 87.9726 25.0161 88.2529 25.3567C93.0178 31.1343 95.9624 37.6925 96.7942 45.1699C96.8274 45.4683 96.9148 45.7787 96.8726 46.0681C96.5561 48.1838 97.3789 49.4918 99.4495 50.17C100.501 50.5135 101.454 51.1886 102.427 51.7553C103.919 52.6233 104.41 54.2357 103.639 55.607C102.891 56.9361 101.318 57.352 99.8232 56.6046C99.2536 56.3183 98.696 56.0048 98.1324 55.7004C97.608 55.4201 97.0836 55.1368 96.4959 54.8234C96.1734 56.1043 95.875 57.3038 95.5435 58.6209V58.6179ZM15.7781 61.8487C16.0825 62.3852 16.3116 62.8132 16.5617 63.2231C19.9433 68.7475 24.6811 72.7801 30.4437 75.586C41.1429 80.794 52.3516 81.6258 63.8525 79.058C71.5379 77.3431 78.3583 73.8982 83.7622 68.0393C85.447 66.2098 86.8213 64.0941 88.5 61.9C87.0323 61.6016 85.9412 61.469 84.9165 61.1375C84.2776 60.9295 83.5995 60.5347 83.1775 60.0253C82.4421 59.1393 82.4542 58.0573 83.0509 57.0657C83.7019 55.9837 84.7206 55.5588 85.9443 55.7667C87.409 56.0139 88.8587 56.3394 90.4138 56.6528C90.7062 55.2453 90.9805 53.9313 91.2879 52.4424C89.6785 52.0898 88.1926 51.7311 86.6917 51.4418C84.8713 51.0922 83.8376 49.8867 84.0485 48.2682C84.2565 46.6769 85.6157 45.7667 87.4663 45.9867C87.7646 46.0229 88.057 46.0892 88.3523 46.1434C89.3258 46.3273 90.3023 46.5171 91.3632 46.7191C91.3482 46.3936 91.3482 46.2097 91.3331 46.0319C90.7393 39.3923 88.1173 33.6147 83.7652 28.6388C82.6139 27.3217 82.1196 26.0047 82.204 24.2596C82.4542 19.1812 82.6109 14.0968 82.6893 9.01242C82.7043 8.1173 82.421 6.92681 81.8183 6.39034C81.0045 5.664 79.9979 6.46268 79.1721 6.9901C77.2372 8.22278 75.3053 9.45244 73.3794 10.6972C69.2745 13.3464 65.1786 16.0106 61.0707 18.6568C59.5457 19.6394 57.7615 19.4254 57.0592 17.9998C56.6493 17.171 56.6976 16.1161 56.5047 14.9709H46.9627C47.457 16.9269 47.1767 18.0571 46.0706 18.7864C44.7716 19.6424 43.6173 19.2204 42.4208 18.4428C36.6251 14.6695 30.8083 10.9292 24.9885 7.19203C24.0874 6.61337 23.129 5.69715 22.0229 6.33911C20.9077 6.98408 21.0584 8.29511 21.1127 9.41929C21.3478 14.4223 21.5618 19.4284 21.8903 24.4254C21.9897 25.9353 21.61 27.0897 20.6003 28.2078C17.0078 32.1861 14.5063 36.7763 13.3158 42.0265C12.9752 43.5364 12.8094 45.0855 12.5472 46.7311C14.1386 46.4388 15.4586 46.1645 16.7878 45.9596C17.9692 45.7787 18.9457 46.1736 19.5877 47.2224C20.6395 48.9433 19.6208 50.9807 17.5352 51.4056C15.9439 51.7311 14.3586 52.0958 12.704 52.4575C13.0506 54.0247 13.3399 55.3297 13.6383 56.686C14.4912 56.487 15.1814 56.3122 15.8746 56.1676C16.5738 56.0199 17.273 55.8782 17.9783 55.7697C19.6178 55.5136 21.0343 56.4298 21.3116 57.9036C21.613 59.4949 20.6907 60.8029 18.9849 61.1827C17.9662 61.4087 16.9385 61.6046 15.7841 61.8427L15.7781 61.8487Z" fill="#71A894"/>
<path d="M28.0808 45.7124C28.1893 41.0801 32.246 37.3127 37.0079 37.4122C41.6101 37.5117 45.5011 41.4538 45.4589 45.9807C45.4438 47.569 44.3919 48.7625 42.8971 48.883C41.4474 49.0006 40.2298 47.9306 40.0007 46.3363C39.6843 44.1151 38.4817 42.8854 36.6824 42.9366C34.9434 42.9879 33.7861 44.2085 33.5299 46.264C33.2647 48.3857 31.3027 49.5099 29.5215 48.5394C28.4093 47.9337 27.9814 46.9511 28.0808 45.7094V45.7124Z" fill="#71A894"/>
<path d="M75.9228 45.833C75.9409 47.563 74.8589 48.8228 73.2917 48.8921C71.8058 48.9584 70.6786 47.8643 70.4586 46.1434C70.2416 44.4345 69.3736 43.3495 67.9722 43.0331C66.6189 42.7287 65.2356 43.235 64.5725 44.4285C64.2561 44.9981 64.1174 45.6913 64.0089 46.3484C63.7437 47.9276 62.5442 49.0036 61.0945 48.883C59.6026 48.7595 58.5538 47.563 58.5418 45.9716C58.5056 41.3996 62.4538 37.4574 67.1132 37.4092C71.8691 37.361 75.8746 41.1916 75.9228 45.833Z" fill="#71A894"/>
<path d="M51.9815 62.4425C50.3389 63.9615 48.4643 64.7089 46.2129 64.3322C42.3853 63.6902 40.0073 59.5703 41.3847 55.9325C41.8247 54.7722 42.6716 54.2839 43.6361 54.6365C44.5252 54.962 44.8537 55.83 44.5282 56.9934C44.0369 58.7475 44.6367 60.2152 46.1074 60.8662C47.5029 61.4841 49.1726 60.9627 49.9079 59.6125C50.1521 59.1634 50.2877 58.6269 50.348 58.1146C50.4715 57.0989 50.999 56.466 51.9996 56.469C53.0002 56.469 53.5005 57.1049 53.6512 58.1146C53.9797 60.3418 55.6102 61.5444 57.4668 61.0079C59.1786 60.5106 59.9743 58.8982 59.5554 57.0898C59.4107 56.469 59.4378 55.613 59.7663 55.1188C60.4897 54.0398 62.0358 54.4738 62.5813 55.818C63.6 58.3255 62.8013 61.2821 60.6283 63.0422C58.4945 64.7722 55.4565 64.9048 53.172 63.3587C52.7741 63.0875 52.4065 62.771 51.9815 62.4425Z" fill="#71A894"/>
</svg>
