<svg width="104" height="89" viewBox="0 0 104 89" fill="none" xmlns="http://www.w3.org/2000/svg">
<path d="M5.05664 78.4169C5.57107 77.3881 6.40397 77.0941 7.53082 77.0941C16.2517 77.1186 24.9481 77.1186 33.669 77.1186C34.0119 77.1186 34.3304 77.1186 34.8693 77.1186C34.5509 76.8981 34.4039 76.7266 34.2079 76.6287C25.83 71.4843 20.8816 64.0618 19.4363 54.312C19.2403 53.0382 19.1913 51.7398 19.1913 50.466C19.1668 43.8764 19.1668 37.3112 19.1913 30.7215C19.1913 29.0068 19.7792 28.3943 21.494 28.3943C40.7486 28.3943 60.0031 28.3698 79.2576 28.3943C86.8762 28.3943 93.5148 34.0531 94.8866 41.8431C96.185 49.2167 93.9802 55.3409 87.8805 59.8238C85.1124 61.8815 81.8788 62.6409 78.4492 62.5185C77.6163 62.494 77.1754 62.7389 76.7834 63.5228C74.1623 69.0346 70.1938 73.3216 64.9759 76.5062C64.78 76.6287 64.5595 76.7511 64.3635 76.8981C64.339 76.9226 64.3145 76.9471 64.1921 77.1186C64.6085 77.1186 64.9025 77.1186 65.2209 77.1186C75.6076 77.1186 85.9943 77.1431 96.3809 77.0941C98.4632 77.0941 99.1736 78.123 98.8796 80.0337C98.1447 84.8841 94.4457 88.1422 89.5463 88.1422C82.7117 88.1667 75.8526 88.1422 69.0179 88.1422C51.0617 88.1422 33.081 88.1422 15.1249 88.1422C9.73554 88.1422 6.52645 85.619 5.20362 80.3767C5.17913 80.3277 5.13013 80.2787 5.08114 80.2297C5.05664 79.6418 5.05664 79.0539 5.05664 78.4169ZM22.8659 35.7679C23.3068 35.7679 23.6743 35.7679 24.0417 35.7679C32.2726 35.7679 40.4791 35.7679 48.71 35.7679C49.053 35.7679 49.396 35.7434 49.7144 35.7924C50.6698 35.8904 51.3067 36.6498 51.3067 37.6052C51.3067 38.781 50.4983 39.4424 49.053 39.4424C40.6751 39.4424 32.2971 39.4424 23.9437 39.4424C23.6008 39.4424 23.2333 39.4424 22.8659 39.4424C22.8659 41.5492 22.8414 43.5089 22.8659 45.4687C22.9149 48.2858 22.7679 51.1274 23.1353 53.8956C25.242 70.186 41.361 80.6216 57.1125 75.9917C67.6706 72.9051 75.5341 63.2044 76.024 52.2053C76.318 45.6646 76.122 39.0995 76.1465 32.5588C76.1465 32.4118 76.073 32.2648 76.0485 32.1424C58.3128 32.1424 40.6016 32.1424 22.8904 32.1424C22.8659 33.3672 22.8659 34.4941 22.8659 35.7679ZM9.14762 80.8421C9.17212 80.9646 9.17211 81.0626 9.19661 81.1361C9.2456 81.2831 9.3191 81.43 9.39259 81.5525C10.5439 83.5613 12.3077 84.4922 14.6104 84.4922C39.5482 84.4922 64.4615 84.4922 89.3993 84.4922C89.6198 84.4922 89.8158 84.4922 90.0362 84.4922C92.2655 84.3697 94.3477 82.8019 94.8131 80.8666C66.2743 80.8421 37.711 80.8421 9.14762 80.8421ZM79.87 36.0864C80.017 36.1353 80.0905 36.1598 80.1885 36.1843C84.549 36.8703 88.2235 40.4958 88.2725 45.4687C88.3215 50.0986 85.0634 53.7241 80.017 54.753C79.7966 54.802 79.5026 55.0224 79.4536 55.2184C79.1596 56.3943 78.9392 57.5946 78.6942 58.8684C83.2996 58.9174 86.8517 57.0312 89.2523 53.2832C92.3879 48.3593 92.4859 43.2394 89.5708 38.1931C87.4641 34.5431 84.2305 32.4608 79.87 32.0934C79.87 33.4897 79.87 34.7635 79.87 36.0864ZM79.87 51.0049C82.7362 50.417 84.6959 47.9673 84.5979 45.2972C84.4755 42.627 82.4177 40.2753 79.87 39.9569C79.87 43.6314 79.87 47.2814 79.87 51.0049Z" fill="#71A894"/>
<path d="M46.334 10.3156C46.383 8.13542 46.7504 6.6656 47.6078 5.34277C48.3427 4.24042 48.9307 3.11356 48.9552 1.71724C48.9796 0.639381 49.8615 -0.0465312 50.8414 0.00246254C51.8703 0.0514563 52.5562 0.835354 52.5807 1.98671C52.6052 3.628 52.1642 5.1468 51.2334 6.46963C49.6411 8.72334 49.6411 10.9036 51.2334 13.1573C52.1887 14.5046 52.6297 16.0724 52.5807 17.7382C52.5562 18.7916 51.9193 19.5265 50.9639 19.6244C49.9595 19.7224 49.0286 19.0855 48.9796 18.0321C48.9306 16.5133 48.2447 15.2885 47.4853 14.0637C46.6769 12.7653 46.334 11.2465 46.334 10.3156Z" fill="#71A894"/>
<path d="M42.7818 5.56326C42.7328 7.15556 42.3164 8.64986 41.3855 9.9482C39.8177 12.1774 39.8177 14.3576 41.3855 16.5623C42.2919 17.8362 42.7083 19.306 42.7818 20.8738C42.8308 22.1231 42.1694 23.005 41.0915 23.103C40.0382 23.201 39.3278 22.3926 39.1073 21.1678C38.9358 20.2369 38.6908 19.2325 38.2009 18.4486C35.9962 14.9701 35.9962 11.5895 38.2009 8.13543C38.6908 7.35153 38.9358 6.34716 39.1073 5.41628C39.3278 4.16694 39.9892 3.40754 41.0915 3.48103C42.1204 3.53002 42.8063 4.38741 42.7818 5.56326Z" fill="#71A894"/>
<path d="M56.2065 13.4022C56.1575 11.6629 56.574 10.1441 57.4803 8.77232C58.2397 7.64546 58.8032 6.46961 58.8277 5.0488C58.8522 4.06892 59.7585 3.40751 60.7384 3.4565C61.6938 3.50549 62.4287 4.2649 62.4532 5.26927C62.4777 6.69009 62.1592 8.06191 61.4488 9.31125C61.2039 9.7277 60.9344 10.1441 60.6894 10.5606C59.5626 12.3734 59.5626 14.2106 60.7139 15.9989C61.6938 17.5177 62.4042 19.11 62.4532 20.9473C62.4777 22.1966 61.7673 23.054 60.6894 23.103C59.6361 23.152 58.9747 22.3191 58.7542 21.0942C58.5827 20.0899 58.2152 19.0855 57.7253 18.2281C56.8189 16.6848 56.1575 15.117 56.2065 13.4022Z" fill="#71A894"/>
</svg>
