<svg width="104" height="89" viewBox="0 0 104 89" fill="none" xmlns="http://www.w3.org/2000/svg">
<path d="M43.7395 65.7243C44.763 59.6559 46.2134 53.9887 48.4574 48.5387C48.6298 48.1209 48.5312 47.5328 48.4136 47.0601C47.3107 42.6462 46.5883 38.1938 46.6704 33.6205C46.8647 22.9183 51.8726 15.3383 61.2891 10.5616C66.6664 7.83518 72.457 6.41152 78.2612 5.00435C80.8746 4.36948 83.4689 3.63841 86.0495 2.87161C87.1933 2.53081 88.2442 2.00587 88.8161 0.774595C89.1527 0.0490229 89.9272 -0.126874 90.6852 0.0820033C91.5499 0.318364 91.9659 0.964233 91.9714 1.84921C91.9823 3.84179 92.0398 5.83711 91.9522 7.82694C91.6485 14.8573 90.6086 21.7612 88.2798 28.426C86.2739 34.1674 83.4169 39.3948 78.9563 43.6053C73.9046 48.3765 67.8185 50.7182 60.9689 50.949C58.1202 51.0452 55.2522 50.6934 52.4007 50.4516C51.6892 50.3911 51.4539 50.6055 51.2295 51.1964C48.8897 57.3198 47.371 63.6575 46.7361 70.1657C46.2928 74.7005 46.2599 79.2738 46.0519 83.8306C46.0136 84.6552 46.0519 85.4824 45.9808 86.3014C45.8959 87.3128 45.1626 87.9917 44.254 87.9999C43.3592 88.0082 42.5738 87.3183 42.519 86.3152C42.4315 84.7046 42.4342 83.0886 42.415 81.4725C42.3412 75.4838 41.3232 69.6682 39.3775 64.0066C39.1284 63.2782 38.8001 63.0804 38.0584 63.1848C26.7017 64.8036 18.9217 59.403 15.0002 49.4154C12.5948 43.2865 11.8367 36.8691 12.0283 30.3169C12.0529 29.432 12.4059 28.7696 13.2789 28.5305C14.1738 28.2859 14.8086 28.6542 15.3751 29.41C15.7117 29.8607 16.3001 30.2345 16.8474 30.3911C19.4362 31.125 22.0496 31.7736 24.6575 32.4497C28.8691 33.5408 32.9794 34.8737 36.526 37.5369C40.806 40.7498 42.9076 45.1087 43.2169 50.4076C43.4084 53.6946 42.9186 56.9103 42.1742 60.1011C42.0675 60.5629 42.1168 61.1153 42.2618 61.5688C42.675 62.8687 43.1731 64.1412 43.745 65.7216L43.7395 65.7243ZM53.1752 47.0381C54.7241 47.181 56.1143 47.3596 57.5072 47.4256C61.8556 47.6372 66.0945 47.093 70.1145 45.3203C75.8558 42.7891 79.7472 38.3559 82.5686 32.8674C85.5569 27.0574 87.0538 20.802 87.8529 14.3626C88.2031 11.5427 88.3646 8.69818 88.6054 5.91407C85.4666 6.74957 82.4919 7.59058 79.4899 8.32714C74.1235 9.64911 68.738 10.8914 63.7137 13.3072C59.3188 15.4207 55.4985 18.2213 53.0137 22.561C50.3675 27.1838 49.8694 32.2243 50.2854 37.416C50.4304 39.2299 50.7397 41.0301 51.0106 43.1161C51.9957 41.5963 52.7647 40.3485 53.5966 39.1447C56.4837 34.9809 60.0166 31.4905 64.3458 28.8411C65.1914 28.3244 66.0097 28.1897 66.7759 28.929C67.6899 29.8112 67.3944 31.0755 66.0835 31.8945C60.397 35.4427 56.3989 40.4832 53.4051 46.4114C53.3312 46.5544 53.2929 46.7165 53.1752 47.0381ZM39.2926 55.668C39.4377 55.6378 39.5827 55.6075 39.725 55.5773C39.725 53.8678 39.8016 52.1528 39.7086 50.4461C39.4979 46.4774 38.001 43.0777 34.7992 40.6646C33.2886 39.5267 31.6166 38.4356 29.8433 37.8475C25.1665 36.2947 20.3967 35.0304 15.4025 33.5738C15.75 36.3139 15.9607 38.8122 16.3986 41.2665C17.2223 45.8673 18.6809 50.2344 21.5871 53.9915C25.3088 58.7984 31.2882 60.681 37.388 59.6064C37.2867 59.3838 37.2019 59.1667 37.0897 58.966C35.2152 55.624 32.8179 52.7712 29.5505 50.7154C28.4121 50.0008 28.1111 49.0609 28.6611 48.1292C29.2303 47.1672 30.251 47.0271 31.4196 47.7527C34.3723 49.5831 36.7586 52.0044 38.718 54.8682C38.9013 55.1376 39.0983 55.3986 39.2872 55.6652L39.2926 55.668Z" fill="#71A894"/>
</svg>
